M48
;Layer_Color=6321
;FILE_FORMAT=2:5
INCH,LZ
;TYPE=PLATED
T1F00S00C0.00787
T2F00S00C0.01500
T4F00S00C0.06693
T5F00S00C0.12598
%
T01
X0264169Y0153669
X02685
X0272831
Y0158
X02685
X0264169
T02
X02325Y0133
Y015
X02425
X02525Y0155
X02495Y014
X02525Y0134
X02675Y0137
X02645Y0140335
X02705
X02725Y0115
X02825
X02925
Y0134
X02625Y0115
X02225Y015
X0316Y01515
X03215Y01135
X0329831Y0161331
X03185Y01905
X03145
X0370094Y0184906
X036361Y017339
X0368Y02345
X031Y01905
X03025
X02985
X02945
X03065Y0173
X0272437Y0170937
X02685Y0169
X0264563Y0171
X0258Y0176
X02365Y01815
X02275Y0168
X01625Y0181
Y019
X01385Y0185
Y0174
T04
X0110284Y0141008
X0395717
Y0216992
X0110284
T05
X0143512Y0141008
X0362488
Y0216992
X0143512
M30
