%TF.GenerationSoftware,Altium Limited,CircuitMaker,2.0.2 (2.0.2.40)*%
G04 Layer_Color=128*
%FSLAX25Y25*%
%MOIN*%
%TF.SameCoordinates,4CCF3E00-E941-4990-BDAE-273065C54DFB*%
%TF.FilePolarity,Positive*%
%TF.FileFunction,Drillmap*%
%TF.Part,Single*%
G01*
G75*
%TA.AperFunction,NonConductor*%
%ADD80C,0.00500*%
D80*
X137213Y141008D02*
X149811D01*
X143512Y134709D02*
Y147307D01*
X137213Y216992D02*
X149811D01*
X143512Y210693D02*
Y223291D01*
X356189Y141008D02*
X368787D01*
X362488Y134709D02*
Y147307D01*
X356189Y216992D02*
X368787D01*
X362488Y210693D02*
Y223291D01*
X392370Y141008D02*
X399063D01*
X395717Y137661D02*
Y144354D01*
X106937Y141008D02*
X113630D01*
X110284Y137661D02*
Y144354D01*
X106937Y216992D02*
X113630D01*
X110284Y213646D02*
Y220339D01*
X392370Y216992D02*
X399063D01*
X395717Y213646D02*
Y220339D01*
X396118Y196008D02*
X398480D01*
X397299Y194827D02*
Y197189D01*
X396118Y161992D02*
X398480D01*
X397299Y160811D02*
Y163173D01*
X375016Y196008D02*
X377378D01*
X376197Y194827D02*
Y197189D01*
X375016Y161992D02*
X377378D01*
X376197Y160811D02*
Y163173D01*
X107020Y161992D02*
X109382D01*
X108201Y160811D02*
Y163173D01*
X107020Y196008D02*
X109382D01*
X108201Y194827D02*
Y197189D01*
X128122Y161992D02*
X130484D01*
X129303Y160811D02*
Y163173D01*
X128122Y196008D02*
X130484D01*
X129303Y194827D02*
Y197189D01*
X226750Y168000D02*
X228250D01*
X227500Y167250D02*
Y168750D01*
X271687Y170937D02*
X273187D01*
X272437Y170187D02*
Y171687D01*
X263813Y171000D02*
X265313D01*
X264563Y170250D02*
Y171750D01*
X267750Y169000D02*
X269250D01*
X268500Y168250D02*
Y169750D01*
X257250Y176000D02*
X258750D01*
X258000Y175250D02*
Y176750D01*
X231750Y133000D02*
X233250D01*
X232500Y132250D02*
Y133750D01*
X248750Y140000D02*
X250250D01*
X249500Y139250D02*
Y140750D01*
X271750Y115000D02*
X273250D01*
X272500Y114250D02*
Y115750D01*
X266750Y137000D02*
X268250D01*
X267500Y136250D02*
Y137750D01*
X281750Y115000D02*
X283250D01*
X282500Y114250D02*
Y115750D01*
X251750Y134000D02*
X253250D01*
X252500Y133250D02*
Y134750D01*
X251750Y155000D02*
X253250D01*
X252500Y154250D02*
Y155750D01*
X241750Y150000D02*
X243250D01*
X242500Y149250D02*
Y150750D01*
X231750Y150000D02*
X233250D01*
X232500Y149250D02*
Y150750D01*
X221750Y150000D02*
X223250D01*
X222500Y149250D02*
Y150750D01*
X272437Y158000D02*
X273224D01*
X272831Y157606D02*
Y158394D01*
X272437Y153669D02*
X273224D01*
X272831Y153276D02*
Y154063D01*
X268106Y158000D02*
X268894D01*
X268500Y157606D02*
Y158394D01*
X268106Y153669D02*
X268894D01*
X268500Y153276D02*
Y154063D01*
X263776Y158000D02*
X264563D01*
X264169Y157606D02*
Y158394D01*
X263776Y153669D02*
X264563D01*
X264169Y153276D02*
Y154063D01*
X263750Y140335D02*
X265250D01*
X264500Y139585D02*
Y141085D01*
X269750Y140335D02*
X271250D01*
X270500Y139585D02*
Y141085D01*
X261750Y115000D02*
X263250D01*
X262500Y114250D02*
Y115750D01*
X329081Y161331D02*
X330581D01*
X329831Y160581D02*
Y162081D01*
X293750Y190500D02*
X295250D01*
X294500Y189750D02*
Y191250D01*
X301750Y190500D02*
X303250D01*
X302500Y189750D02*
Y191250D01*
X297750Y190500D02*
X299250D01*
X298500Y189750D02*
Y191250D01*
X317750Y190500D02*
X319250D01*
X318500Y189750D02*
Y191250D01*
X313750Y190500D02*
X315250D01*
X314500Y189750D02*
Y191250D01*
X309250Y190500D02*
X310750D01*
X310000Y189750D02*
Y191250D01*
X315250Y151500D02*
X316750D01*
X316000Y150750D02*
Y152250D01*
X305750Y173000D02*
X307250D01*
X306500Y172250D02*
Y173750D01*
X291750Y134000D02*
X293250D01*
X292500Y133250D02*
Y134750D01*
X291750Y115000D02*
X293250D01*
X292500Y114250D02*
Y115750D01*
X320750Y113500D02*
X322250D01*
X321500Y112750D02*
Y114250D01*
X235750Y181500D02*
X237250D01*
X236500Y180750D02*
Y182250D01*
X367250Y234500D02*
X368750D01*
X368000Y233750D02*
Y235250D01*
X369344Y184906D02*
X370845D01*
X370094Y184155D02*
Y185655D01*
X362860Y173390D02*
X364360D01*
X363610Y172640D02*
Y174140D01*
X161750Y181000D02*
X163250D01*
X162500Y180250D02*
Y181750D01*
X161750Y190000D02*
X163250D01*
X162500Y189250D02*
Y190750D01*
X137750Y174000D02*
X139250D01*
X138500Y173250D02*
Y174750D01*
X137750Y185000D02*
X139250D01*
X138500Y184250D02*
Y185750D01*
%TF.MD5,9f40e41f40680389350a553dd59ea677*%
M02*
