%TF.GenerationSoftware,Altium Limited,CircuitMaker,2.0.2 (2.0.2.40)*%
G04 Layer_Color=0*
%FSLAX25Y25*%
%MOIN*%
%TF.SameCoordinates,4CCF3E00-E941-4990-BDAE-273065C54DFB*%
%TF.FilePolarity,Positive*%
%TF.FileFunction,Plated,1,2,PTH,Drill*%
%TF.Part,Single*%
G01*
G75*
%TA.AperFunction,ComponentDrill*%
%ADD83C,0.12598*%
%ADD84C,0.06693*%
%ADD85O,0.08268X0.02362*%
%ADD86O,0.06299X0.02362*%
%TA.AperFunction,ViaDrill,NotFilled*%
%ADD87C,0.01500*%
%ADD88C,0.00787*%
D83*
X143512Y141008D02*
D03*
Y216992D02*
D03*
X362488Y141008D02*
D03*
Y216992D02*
D03*
D84*
X395717Y141008D02*
D03*
X110284D02*
D03*
Y216992D02*
D03*
X395717D02*
D03*
D85*
X397299Y196008D02*
D03*
Y161992D02*
D03*
X108201Y161992D02*
D03*
Y196008D02*
D03*
D86*
X376197Y196008D02*
D03*
Y161992D02*
D03*
X129303Y161992D02*
D03*
Y196008D02*
D03*
D87*
X227500Y168000D02*
D03*
X272437Y170937D02*
D03*
X264563Y171000D02*
D03*
X268500Y169000D02*
D03*
X258000Y176000D02*
D03*
X232500Y133000D02*
D03*
X249500Y140000D02*
D03*
X272500Y115000D02*
D03*
X267500Y137000D02*
D03*
X282500Y115000D02*
D03*
X252500Y134000D02*
D03*
Y155000D02*
D03*
X242500Y150000D02*
D03*
X232500D02*
D03*
X222500D02*
D03*
X264500Y140335D02*
D03*
X270500D02*
D03*
X262500Y115000D02*
D03*
X329831Y161331D02*
D03*
X294500Y190500D02*
D03*
X302500D02*
D03*
X298500D02*
D03*
X318500D02*
D03*
X314500D02*
D03*
X310000D02*
D03*
X316000Y151500D02*
D03*
X306500Y173000D02*
D03*
X292500Y134000D02*
D03*
Y115000D02*
D03*
X321500Y113500D02*
D03*
X236500Y181500D02*
D03*
X368000Y234500D02*
D03*
X370094Y184906D02*
D03*
X363610Y173390D02*
D03*
X162500Y181000D02*
D03*
Y190000D02*
D03*
X138500Y174000D02*
D03*
Y185000D02*
D03*
D88*
X272831Y158000D02*
D03*
Y153669D02*
D03*
X268500Y158000D02*
D03*
Y153669D02*
D03*
X264169Y158000D02*
D03*
Y153669D02*
D03*
%TF.MD5,6cc716abe4460a67a322db825e6aa1b7*%
M02*
