%TF.GenerationSoftware,Altium Limited,CircuitMaker,2.0.2 (2.0.2.40)*%
G04 Layer_Physical_Order=2*
G04 Layer_Color=11436288*
%FSLAX25Y25*%
%MOIN*%
%TF.SameCoordinates,4CCF3E00-E941-4990-BDAE-273065C54DFB*%
%TF.FilePolarity,Positive*%
%TF.FileFunction,Copper,L2,Bot,Signal*%
%TF.Part,Single*%
G01*
G75*
%TA.AperFunction,Conductor*%
%ADD28C,0.03000*%
%ADD29C,0.01200*%
%ADD30C,0.00700*%
%TA.AperFunction,ComponentPad*%
%ADD42C,0.15748*%
%ADD43C,0.10630*%
%ADD44O,0.10236X0.04331*%
%ADD45O,0.08268X0.04331*%
%TA.AperFunction,ViaPad*%
%ADD46C,0.03000*%
%ADD47C,0.01968*%
%TA.AperFunction,Conductor*%
%ADD48C,0.01000*%
%ADD49C,0.01500*%
G36*
X404471Y101529D02*
X101529D01*
Y256471D01*
X404471D01*
Y101529D01*
D02*
G37*
%LPC*%
G36*
X111033Y223264D02*
Y217742D01*
X116555D01*
X116507Y218230D01*
X116146Y219421D01*
X115560Y220517D01*
X114770Y221479D01*
X113809Y222268D01*
X112712Y222855D01*
X111521Y223216D01*
X111033Y223264D01*
D02*
G37*
G36*
X109534D02*
X109046Y223216D01*
X107855Y222855D01*
X106758Y222268D01*
X105797Y221479D01*
X105007Y220517D01*
X104421Y219421D01*
X104060Y218230D01*
X104012Y217742D01*
X109534D01*
Y223264D01*
D02*
G37*
G36*
X116555Y216242D02*
X111033D01*
Y210720D01*
X111521Y210769D01*
X112712Y211130D01*
X113809Y211716D01*
X114770Y212505D01*
X115560Y213467D01*
X116146Y214564D01*
X116507Y215754D01*
X116555Y216242D01*
D02*
G37*
G36*
X109534D02*
X104012D01*
X104060Y215754D01*
X104421Y214564D01*
X105007Y213467D01*
X105797Y212505D01*
X106758Y211716D01*
X107855Y211130D01*
X109046Y210769D01*
X109534Y210720D01*
Y216242D01*
D02*
G37*
G36*
X395717Y224342D02*
X394283Y224201D01*
X392904Y223783D01*
X391633Y223104D01*
X390519Y222190D01*
X389605Y221076D01*
X388926Y219805D01*
X388507Y218426D01*
X388366Y216992D01*
X388507Y215558D01*
X388926Y214179D01*
X389605Y212909D01*
X390519Y211795D01*
X391633Y210880D01*
X392904Y210201D01*
X394283Y209783D01*
X395717Y209642D01*
X397150Y209783D01*
X398529Y210201D01*
X399800Y210880D01*
X400914Y211795D01*
X401828Y212909D01*
X402507Y214179D01*
X402926Y215558D01*
X403067Y216992D01*
X402926Y218426D01*
X402507Y219805D01*
X401828Y221076D01*
X400914Y222190D01*
X399800Y223104D01*
X398529Y223783D01*
X397150Y224201D01*
X395717Y224342D01*
D02*
G37*
G36*
X362488Y225909D02*
X360749Y225738D01*
X359076Y225230D01*
X357534Y224406D01*
X356183Y223297D01*
X355074Y221946D01*
X354250Y220405D01*
X353743Y218732D01*
X353571Y216992D01*
X353743Y215252D01*
X354250Y213580D01*
X355074Y212038D01*
X356183Y210687D01*
X357534Y209578D01*
X359076Y208754D01*
X360749Y208246D01*
X362488Y208075D01*
X364228Y208246D01*
X365901Y208754D01*
X367442Y209578D01*
X368793Y210687D01*
X369902Y212038D01*
X370726Y213580D01*
X371234Y215252D01*
X371405Y216992D01*
X371234Y218732D01*
X370726Y220405D01*
X369902Y221946D01*
X368793Y223297D01*
X367442Y224406D01*
X365901Y225230D01*
X364228Y225738D01*
X362488Y225909D01*
D02*
G37*
G36*
X143512D02*
X141772Y225738D01*
X140099Y225230D01*
X138558Y224406D01*
X137207Y223297D01*
X136098Y221946D01*
X135274Y220405D01*
X134766Y218732D01*
X134595Y216992D01*
X134766Y215252D01*
X135274Y213580D01*
X136098Y212038D01*
X137207Y210687D01*
X138558Y209578D01*
X140099Y208754D01*
X141772Y208246D01*
X143512Y208075D01*
X145251Y208246D01*
X146924Y208754D01*
X148466Y209578D01*
X149817Y210687D01*
X150926Y212038D01*
X151750Y213580D01*
X152257Y215252D01*
X152429Y216992D01*
X152257Y218732D01*
X151750Y220405D01*
X150926Y221946D01*
X149817Y223297D01*
X148466Y224406D01*
X146924Y225230D01*
X145251Y225738D01*
X143512Y225909D01*
D02*
G37*
G36*
X400252Y199200D02*
X398049D01*
Y196758D01*
X403346D01*
X403336Y196834D01*
X403017Y197604D01*
X402509Y198265D01*
X401848Y198773D01*
X401078Y199092D01*
X400252Y199200D01*
D02*
G37*
G36*
X396549D02*
X394346D01*
X393520Y199092D01*
X392750Y198773D01*
X392089Y198265D01*
X391582Y197604D01*
X391263Y196834D01*
X391252Y196758D01*
X396549D01*
Y199200D01*
D02*
G37*
G36*
X378165D02*
X376947D01*
Y196758D01*
X381259D01*
X381249Y196834D01*
X380930Y197604D01*
X380423Y198265D01*
X379762Y198773D01*
X378992Y199092D01*
X378165Y199200D01*
D02*
G37*
G36*
X375447D02*
X374228D01*
X373402Y199092D01*
X372632Y198773D01*
X371971Y198265D01*
X371463Y197604D01*
X371145Y196834D01*
X371134Y196758D01*
X375447D01*
Y199200D01*
D02*
G37*
G36*
X131272Y199200D02*
X130053D01*
Y196758D01*
X134366D01*
X134355Y196834D01*
X134037Y197604D01*
X133529Y198265D01*
X132868Y198773D01*
X132098Y199092D01*
X131272Y199200D01*
D02*
G37*
G36*
X128553D02*
X127335D01*
X126508Y199092D01*
X125738Y198773D01*
X125077Y198265D01*
X124570Y197604D01*
X124251Y196834D01*
X124241Y196758D01*
X128553D01*
Y199200D01*
D02*
G37*
G36*
X111153D02*
X108951D01*
Y196758D01*
X114248D01*
X114237Y196834D01*
X113918Y197604D01*
X113411Y198265D01*
X112750Y198773D01*
X111980Y199092D01*
X111153Y199200D01*
D02*
G37*
G36*
X107451D02*
X105248D01*
X104422Y199092D01*
X103652Y198773D01*
X102990Y198265D01*
X102483Y197604D01*
X102164Y196834D01*
X102154Y196758D01*
X107451D01*
Y199200D01*
D02*
G37*
G36*
X403346Y195258D02*
X398049D01*
Y192815D01*
X400252D01*
X401078Y192924D01*
X401848Y193243D01*
X402509Y193750D01*
X403017Y194412D01*
X403336Y195182D01*
X403346Y195258D01*
D02*
G37*
G36*
X396549D02*
X391252D01*
X391263Y195182D01*
X391582Y194412D01*
X392089Y193750D01*
X392750Y193243D01*
X393520Y192924D01*
X394346Y192815D01*
X396549D01*
Y195258D01*
D02*
G37*
G36*
X381259D02*
X376947D01*
Y192815D01*
X378165D01*
X378992Y192924D01*
X379762Y193243D01*
X380423Y193750D01*
X380930Y194412D01*
X381249Y195182D01*
X381259Y195258D01*
D02*
G37*
G36*
X375447D02*
X371134D01*
X371145Y195182D01*
X371463Y194412D01*
X371971Y193750D01*
X372632Y193243D01*
X373402Y192924D01*
X374228Y192815D01*
X375447D01*
Y195258D01*
D02*
G37*
G36*
X134366Y195258D02*
X130053D01*
Y192815D01*
X131272D01*
X132098Y192924D01*
X132868Y193243D01*
X133529Y193750D01*
X134037Y194412D01*
X134355Y195182D01*
X134366Y195258D01*
D02*
G37*
G36*
X128553D02*
X124241D01*
X124251Y195182D01*
X124570Y194412D01*
X125077Y193750D01*
X125738Y193243D01*
X126508Y192924D01*
X127335Y192815D01*
X128553D01*
Y195258D01*
D02*
G37*
G36*
X114248D02*
X108951D01*
Y192815D01*
X111153D01*
X111980Y192924D01*
X112750Y193243D01*
X113411Y193750D01*
X113918Y194412D01*
X114237Y195182D01*
X114248Y195258D01*
D02*
G37*
G36*
X107451D02*
X102154D01*
X102164Y195182D01*
X102483Y194412D01*
X102990Y193750D01*
X103652Y193243D01*
X104422Y192924D01*
X105248Y192815D01*
X107451D01*
Y195258D01*
D02*
G37*
G36*
X370094Y187454D02*
X369119Y187260D01*
X368292Y186708D01*
X367740Y185881D01*
X367546Y184906D01*
X367586Y184704D01*
X362347Y179465D01*
X361993Y178935D01*
X361869Y178311D01*
Y175233D01*
X361808Y175192D01*
X361255Y174365D01*
X361061Y173390D01*
X361255Y172414D01*
X361808Y171587D01*
X362635Y171035D01*
X363610Y170841D01*
X364586Y171035D01*
X365413Y171587D01*
X365965Y172414D01*
X366159Y173390D01*
X365965Y174365D01*
X365413Y175192D01*
X365131Y175380D01*
Y177635D01*
X369893Y182397D01*
X370094Y182357D01*
X371070Y182551D01*
X371897Y183103D01*
X372449Y183930D01*
X372643Y184906D01*
X372449Y185881D01*
X371897Y186708D01*
X371070Y187260D01*
X370094Y187454D01*
D02*
G37*
G36*
X138500Y187549D02*
X137524Y187355D01*
X136698Y186802D01*
X136145Y185976D01*
X135951Y185000D01*
X136145Y184025D01*
X136698Y183198D01*
X136869Y183083D01*
Y175917D01*
X136698Y175802D01*
X136145Y174976D01*
X135951Y174000D01*
X136145Y173024D01*
X136698Y172198D01*
X137524Y171645D01*
X138500Y171451D01*
X139476Y171645D01*
X140302Y172198D01*
X140855Y173024D01*
X141049Y174000D01*
X140855Y174976D01*
X140302Y175802D01*
X140131Y175917D01*
Y183083D01*
X140302Y183198D01*
X140855Y184025D01*
X141049Y185000D01*
X140855Y185976D01*
X140302Y186802D01*
X139476Y187355D01*
X138500Y187549D01*
D02*
G37*
G36*
X236500Y184049D02*
X235525Y183855D01*
X234698Y183302D01*
X234145Y182475D01*
X233951Y181500D01*
X234145Y180525D01*
X234698Y179698D01*
X235525Y179145D01*
X236500Y178951D01*
X237475Y179145D01*
X238302Y179698D01*
X238485Y179971D01*
X260367D01*
X263034Y177304D01*
Y172985D01*
X262761Y172802D01*
X262208Y171976D01*
X262014Y171000D01*
X262208Y170025D01*
X262761Y169198D01*
X263034Y169015D01*
Y166697D01*
X259876Y163539D01*
X259377Y163746D01*
Y173913D01*
X259802Y174198D01*
X260355Y175024D01*
X260549Y176000D01*
X260355Y176976D01*
X259802Y177802D01*
X258976Y178355D01*
X258000Y178549D01*
X257025Y178355D01*
X256198Y177802D01*
X255645Y176976D01*
X255451Y176000D01*
X255645Y175024D01*
X256198Y174198D01*
X256624Y173913D01*
Y150500D01*
X256728Y149973D01*
X257027Y149527D01*
X263123Y143430D01*
Y142422D01*
X262698Y142137D01*
X262145Y141310D01*
X261951Y140335D01*
X262145Y139359D01*
X262698Y138532D01*
X263525Y137980D01*
X264500Y137786D01*
X264691Y137824D01*
X265044Y137470D01*
X264951Y137000D01*
X265145Y136024D01*
X265698Y135198D01*
X265971Y135015D01*
Y133500D01*
X266087Y132915D01*
X266419Y132419D01*
X270971Y127866D01*
Y116985D01*
X270698Y116802D01*
X270145Y115975D01*
X269951Y115000D01*
X270145Y114024D01*
X270698Y113198D01*
X271525Y112645D01*
X272500Y112451D01*
X273476Y112645D01*
X274302Y113198D01*
X274855Y114024D01*
X275049Y115000D01*
X274855Y115975D01*
X274302Y116802D01*
X274029Y116985D01*
Y128500D01*
X273913Y129085D01*
X273581Y129581D01*
X269029Y134134D01*
Y135015D01*
X269302Y135198D01*
X269855Y136024D01*
X270049Y137000D01*
X269855Y137976D01*
X269302Y138802D01*
X269029Y138985D01*
Y144500D01*
X268932Y144988D01*
X268913Y145085D01*
X268581Y145581D01*
X262029Y152134D01*
Y161366D01*
X265644Y164981D01*
X265976Y165478D01*
X266092Y166063D01*
Y169015D01*
X266365Y169198D01*
X266918Y170025D01*
X267112Y171000D01*
X266918Y171976D01*
X266365Y172802D01*
X266092Y172985D01*
Y177937D01*
X265976Y178522D01*
X265644Y179018D01*
X262081Y182581D01*
X261585Y182913D01*
X261000Y183029D01*
X238485D01*
X238302Y183302D01*
X237475Y183855D01*
X236500Y184049D01*
D02*
G37*
G36*
X400252Y165185D02*
X398049D01*
Y162742D01*
X403346D01*
X403336Y162819D01*
X403017Y163589D01*
X402509Y164250D01*
X401848Y164757D01*
X401078Y165076D01*
X400252Y165185D01*
D02*
G37*
G36*
X396549D02*
X394346D01*
X393520Y165076D01*
X392750Y164757D01*
X392089Y164250D01*
X391582Y163589D01*
X391263Y162819D01*
X391252Y162742D01*
X396549D01*
Y165185D01*
D02*
G37*
G36*
X378165D02*
X376947D01*
Y162742D01*
X381259D01*
X381249Y162819D01*
X380930Y163589D01*
X380423Y164250D01*
X379762Y164757D01*
X378992Y165076D01*
X378165Y165185D01*
D02*
G37*
G36*
X375447D02*
X374228D01*
X373402Y165076D01*
X372632Y164757D01*
X371971Y164250D01*
X371463Y163589D01*
X371145Y162819D01*
X371134Y162742D01*
X375447D01*
Y165185D01*
D02*
G37*
G36*
X131272Y165185D02*
X130053D01*
Y162742D01*
X134366D01*
X134355Y162818D01*
X134037Y163588D01*
X133529Y164250D01*
X132868Y164757D01*
X132098Y165076D01*
X131272Y165185D01*
D02*
G37*
G36*
X128553D02*
X127335D01*
X126508Y165076D01*
X125738Y164757D01*
X125077Y164250D01*
X124570Y163588D01*
X124251Y162818D01*
X124241Y162742D01*
X128553D01*
Y165185D01*
D02*
G37*
G36*
X111153D02*
X108951D01*
Y162742D01*
X114248D01*
X114237Y162818D01*
X113918Y163588D01*
X113411Y164250D01*
X112750Y164757D01*
X111980Y165076D01*
X111153Y165185D01*
D02*
G37*
G36*
X107451D02*
X105248D01*
X104422Y165076D01*
X103652Y164757D01*
X102990Y164250D01*
X102483Y163588D01*
X102164Y162818D01*
X102154Y162742D01*
X107451D01*
Y165185D01*
D02*
G37*
G36*
X403346Y161242D02*
X398049D01*
Y158800D01*
X400252D01*
X401078Y158908D01*
X401848Y159227D01*
X402509Y159735D01*
X403017Y160396D01*
X403336Y161166D01*
X403346Y161242D01*
D02*
G37*
G36*
X396549D02*
X391252D01*
X391263Y161166D01*
X391582Y160396D01*
X392089Y159735D01*
X392750Y159227D01*
X393520Y158908D01*
X394346Y158800D01*
X396549D01*
Y161242D01*
D02*
G37*
G36*
X381259D02*
X376947D01*
Y158800D01*
X378165D01*
X378992Y158908D01*
X379762Y159227D01*
X380423Y159735D01*
X380930Y160396D01*
X381249Y161166D01*
X381259Y161242D01*
D02*
G37*
G36*
X375447D02*
X371134D01*
X371145Y161166D01*
X371463Y160396D01*
X371971Y159735D01*
X372632Y159227D01*
X373402Y158908D01*
X374228Y158800D01*
X375447D01*
Y161242D01*
D02*
G37*
G36*
X134366Y161242D02*
X130053D01*
Y158800D01*
X131272D01*
X132098Y158908D01*
X132868Y159227D01*
X133529Y159735D01*
X134037Y160396D01*
X134355Y161166D01*
X134366Y161242D01*
D02*
G37*
G36*
X128553D02*
X124241D01*
X124251Y161166D01*
X124570Y160396D01*
X125077Y159735D01*
X125738Y159227D01*
X126508Y158908D01*
X127335Y158800D01*
X128553D01*
Y161242D01*
D02*
G37*
G36*
X114248D02*
X108951D01*
Y158800D01*
X111153D01*
X111980Y158908D01*
X112750Y159227D01*
X113411Y159735D01*
X113918Y160396D01*
X114237Y161166D01*
X114248Y161242D01*
D02*
G37*
G36*
X107451D02*
X102154D01*
X102164Y161166D01*
X102483Y160396D01*
X102990Y159735D01*
X103652Y159227D01*
X104422Y158908D01*
X105248Y158800D01*
X107451D01*
Y161242D01*
D02*
G37*
G36*
X368000Y237049D02*
X341000D01*
X340024Y236855D01*
X339198Y236302D01*
X328028Y225133D01*
X327476Y224306D01*
X327282Y223331D01*
Y161331D01*
X327476Y160355D01*
X328028Y159528D01*
X328855Y158976D01*
X329831Y158782D01*
X330806Y158976D01*
X331633Y159528D01*
X332186Y160355D01*
X332380Y161331D01*
Y222275D01*
X342056Y231951D01*
X368000D01*
X368975Y232145D01*
X369802Y232698D01*
X370355Y233524D01*
X370549Y234500D01*
X370355Y235475D01*
X369802Y236302D01*
X368975Y236855D01*
X368000Y237049D01*
D02*
G37*
G36*
X252500Y157549D02*
X251524Y157355D01*
X250698Y156802D01*
X250145Y155975D01*
X249951Y155000D01*
X250145Y154025D01*
X250698Y153198D01*
X251123Y152913D01*
Y142452D01*
X250683Y142217D01*
X250476Y142355D01*
X249500Y142549D01*
X248524Y142355D01*
X247698Y141802D01*
X247413Y141376D01*
X244000D01*
X243473Y141272D01*
X243027Y140973D01*
X243027Y140973D01*
X236430Y134376D01*
X234587D01*
X234302Y134802D01*
X233475Y135355D01*
X232500Y135549D01*
X231524Y135355D01*
X230698Y134802D01*
X230145Y133976D01*
X229951Y133000D01*
X230145Y132025D01*
X230698Y131198D01*
X231524Y130645D01*
X232500Y130451D01*
X233475Y130645D01*
X234302Y131198D01*
X234587Y131624D01*
X237000D01*
X237527Y131728D01*
X237973Y132027D01*
X244570Y138624D01*
X247413D01*
X247698Y138198D01*
X248524Y137645D01*
X249500Y137451D01*
X250476Y137645D01*
X250683Y137783D01*
X251123Y137548D01*
Y136087D01*
X250698Y135802D01*
X250145Y134976D01*
X249951Y134000D01*
X250145Y133025D01*
X250698Y132198D01*
X251524Y131645D01*
X252500Y131451D01*
X253475Y131645D01*
X254302Y132198D01*
X254855Y133025D01*
X255049Y134000D01*
X254855Y134976D01*
X254302Y135802D01*
X253876Y136087D01*
Y152913D01*
X254302Y153198D01*
X254855Y154025D01*
X255049Y155000D01*
X254855Y155975D01*
X254302Y156802D01*
X253475Y157355D01*
X252500Y157549D01*
D02*
G37*
G36*
X111033Y147280D02*
Y141758D01*
X116555D01*
X116507Y142246D01*
X116146Y143436D01*
X115560Y144533D01*
X114770Y145495D01*
X113809Y146284D01*
X112712Y146870D01*
X111521Y147231D01*
X111033Y147280D01*
D02*
G37*
G36*
X109534D02*
X109046Y147231D01*
X107855Y146870D01*
X106758Y146284D01*
X105797Y145495D01*
X105007Y144533D01*
X104421Y143436D01*
X104060Y142246D01*
X104012Y141758D01*
X109534D01*
Y147280D01*
D02*
G37*
G36*
X116555Y140258D02*
X111033D01*
Y134736D01*
X111521Y134784D01*
X112712Y135145D01*
X113809Y135732D01*
X114770Y136521D01*
X115560Y137483D01*
X116146Y138579D01*
X116507Y139770D01*
X116555Y140258D01*
D02*
G37*
G36*
X109534D02*
X104012D01*
X104060Y139770D01*
X104421Y138579D01*
X105007Y137483D01*
X105797Y136521D01*
X106758Y135732D01*
X107855Y135145D01*
X109046Y134784D01*
X109534Y134736D01*
Y140258D01*
D02*
G37*
G36*
X395717Y148358D02*
X394283Y148217D01*
X392904Y147799D01*
X391633Y147119D01*
X390519Y146205D01*
X389605Y145091D01*
X388926Y143821D01*
X388507Y142442D01*
X388366Y141008D01*
X388507Y139574D01*
X388926Y138195D01*
X389605Y136924D01*
X390519Y135810D01*
X391633Y134896D01*
X392904Y134217D01*
X394283Y133799D01*
X395717Y133658D01*
X397150Y133799D01*
X398529Y134217D01*
X399800Y134896D01*
X400914Y135810D01*
X401828Y136924D01*
X402507Y138195D01*
X402926Y139574D01*
X403067Y141008D01*
X402926Y142442D01*
X402507Y143821D01*
X401828Y145091D01*
X400914Y146205D01*
X399800Y147119D01*
X398529Y147799D01*
X397150Y148217D01*
X395717Y148358D01*
D02*
G37*
G36*
X362488Y149925D02*
X360749Y149753D01*
X359076Y149246D01*
X357534Y148422D01*
X356183Y147313D01*
X355074Y145962D01*
X354250Y144420D01*
X353743Y142747D01*
X353571Y141008D01*
X353743Y139268D01*
X354250Y137595D01*
X355074Y136054D01*
X356183Y134703D01*
X357534Y133594D01*
X359076Y132770D01*
X360749Y132262D01*
X362488Y132091D01*
X364228Y132262D01*
X365901Y132770D01*
X367442Y133594D01*
X368793Y134703D01*
X369902Y136054D01*
X370726Y137595D01*
X371234Y139268D01*
X371405Y141008D01*
X371234Y142747D01*
X370726Y144420D01*
X369902Y145962D01*
X368793Y147313D01*
X367442Y148422D01*
X365901Y149246D01*
X364228Y149753D01*
X362488Y149925D01*
D02*
G37*
G36*
X143512D02*
X141772Y149753D01*
X140099Y149246D01*
X138558Y148422D01*
X137207Y147313D01*
X136098Y145962D01*
X135274Y144420D01*
X134766Y142747D01*
X134595Y141008D01*
X134766Y139268D01*
X135274Y137595D01*
X136098Y136054D01*
X137207Y134703D01*
X138558Y133594D01*
X140099Y132770D01*
X141772Y132262D01*
X143512Y132091D01*
X145251Y132262D01*
X146924Y132770D01*
X148466Y133594D01*
X149817Y134703D01*
X150926Y136054D01*
X151750Y137595D01*
X152257Y139268D01*
X152429Y141008D01*
X152257Y142747D01*
X151750Y144420D01*
X150926Y145962D01*
X149817Y147313D01*
X148466Y148422D01*
X146924Y149246D01*
X145251Y149753D01*
X143512Y149925D01*
D02*
G37*
G36*
X272437Y173486D02*
X271462Y173292D01*
X270635Y172739D01*
X270082Y171912D01*
X269888Y170937D01*
X270082Y169962D01*
X270635Y169135D01*
X271061Y168850D01*
Y164063D01*
X271165Y163536D01*
X271464Y163090D01*
X275223Y159330D01*
Y149900D01*
X275328Y149373D01*
X275627Y148927D01*
X290051Y134502D01*
X289951Y134000D01*
X290145Y133025D01*
X290698Y132198D01*
X291525Y131645D01*
X292500Y131451D01*
X293476Y131645D01*
X294302Y132198D01*
X294855Y133025D01*
X295049Y134000D01*
X294855Y134976D01*
X294302Y135802D01*
X293476Y136355D01*
X292500Y136549D01*
X291998Y136449D01*
X277976Y150470D01*
Y159900D01*
X277872Y160427D01*
X277573Y160873D01*
X273814Y164633D01*
Y168850D01*
X274239Y169135D01*
X274792Y169962D01*
X274986Y170937D01*
X274792Y171912D01*
X274239Y172739D01*
X273412Y173292D01*
X272437Y173486D01*
D02*
G37*
G36*
X306500Y175549D02*
X305524Y175355D01*
X304698Y174802D01*
X304145Y173976D01*
X303951Y173000D01*
X304145Y172025D01*
X304698Y171198D01*
X304716Y171186D01*
Y148500D01*
X304852Y147817D01*
X305238Y147238D01*
X319716Y132761D01*
Y115314D01*
X319698Y115302D01*
X319145Y114476D01*
X318951Y113500D01*
X319145Y112524D01*
X319698Y111698D01*
X320525Y111145D01*
X321500Y110951D01*
X322476Y111145D01*
X323302Y111698D01*
X323855Y112524D01*
X324049Y113500D01*
X323855Y114476D01*
X323302Y115302D01*
X323284Y115314D01*
Y133500D01*
X323148Y134183D01*
X322762Y134762D01*
X322762Y134762D01*
X308284Y149239D01*
Y171186D01*
X308302Y171198D01*
X308855Y172025D01*
X309049Y173000D01*
X308855Y173976D01*
X308302Y174802D01*
X307475Y175355D01*
X306500Y175549D01*
D02*
G37*
%LPD*%
D28*
X341000Y234500D02*
X368000D01*
X329831Y223331D02*
X341000Y234500D01*
X329831Y161331D02*
Y223331D01*
D29*
X363500Y178311D02*
X370094Y184906D01*
X363610Y173390D02*
X364000Y173000D01*
X363500Y173500D02*
Y178311D01*
Y173500D02*
X363610Y173390D01*
X138500Y174000D02*
Y185000D01*
D30*
X258000Y150500D02*
Y176000D01*
Y150500D02*
X264500Y144000D01*
Y140335D02*
Y144000D01*
X244000Y140000D02*
X249500D01*
X237000Y133000D02*
X244000Y140000D01*
X232500Y133000D02*
X237000D01*
X252500Y134000D02*
Y155000D01*
X272437Y164063D02*
Y170937D01*
X276600Y149900D02*
X292500Y134000D01*
X276600Y149900D02*
Y159900D01*
X272437Y164063D02*
X276600Y159900D01*
D42*
X143512Y141008D02*
D03*
Y216992D02*
D03*
X362488Y141008D02*
D03*
Y216992D02*
D03*
D43*
X395717Y141008D02*
D03*
X110284D02*
D03*
Y216992D02*
D03*
X395717D02*
D03*
D44*
X397299Y196008D02*
D03*
Y161992D02*
D03*
X108201Y161992D02*
D03*
Y196008D02*
D03*
D45*
X376197Y196008D02*
D03*
Y161992D02*
D03*
X129303Y161992D02*
D03*
Y196008D02*
D03*
D46*
X227500Y168000D02*
D03*
X272437Y170937D02*
D03*
X264563Y171000D02*
D03*
X268500Y169000D02*
D03*
X258000Y176000D02*
D03*
X232500Y133000D02*
D03*
X249500Y140000D02*
D03*
X272500Y115000D02*
D03*
X267500Y137000D02*
D03*
X282500Y115000D02*
D03*
X252500Y134000D02*
D03*
Y155000D02*
D03*
X242500Y150000D02*
D03*
X232500D02*
D03*
X222500D02*
D03*
X264500Y140335D02*
D03*
X270500D02*
D03*
X262500Y115000D02*
D03*
X329831Y161331D02*
D03*
X294500Y190500D02*
D03*
X302500D02*
D03*
X298500D02*
D03*
X318500D02*
D03*
X314500D02*
D03*
X310000D02*
D03*
X316000Y151500D02*
D03*
X306500Y173000D02*
D03*
X292500Y134000D02*
D03*
Y115000D02*
D03*
X321500Y113500D02*
D03*
X236500Y181500D02*
D03*
X368000Y234500D02*
D03*
X370094Y184906D02*
D03*
X363610Y173390D02*
D03*
X162500Y181000D02*
D03*
Y190000D02*
D03*
X138500Y174000D02*
D03*
Y185000D02*
D03*
D47*
X272831Y158000D02*
D03*
Y153669D02*
D03*
X268500Y158000D02*
D03*
Y153669D02*
D03*
X264169Y158000D02*
D03*
Y153669D02*
D03*
D48*
X267500Y137000D02*
Y144500D01*
X260500Y151500D02*
X267500Y144500D01*
X260500Y151500D02*
Y162000D01*
X264563Y166063D01*
X267500Y133500D02*
Y137000D01*
Y133500D02*
X272500Y128500D01*
Y115000D02*
Y128500D01*
X261000Y181500D02*
X264563Y177937D01*
X236500Y181500D02*
X261000D01*
X264563Y166063D02*
Y171000D01*
Y177937D01*
D49*
X306500Y148500D02*
Y173000D01*
X321500Y113500D02*
Y133500D01*
X306500Y148500D02*
X321500Y133500D01*
%TF.MD5,1319f1599f69694e70b929db30b509de*%
M02*
